<svg width="62" height="32" viewBox="0 0 62 32" fill="none" xmlns="http://www.w3.org/2000/svg">
<path d="M0 6C0 2.68629 2.68629 0 6 0H47.5889C50.2132 0 52.533 1.7055 53.3157 4.21035L59.5657 24.2104C60.7731 28.0739 57.8867 32 53.8389 32H6C2.68629 32 0 29.3137 0 26V6Z" fill="#4444C7"/>
<path d="M12.1779 24C12.0166 24 11.8846 23.9487 11.7819 23.846C11.6793 23.7433 11.6279 23.6113 11.6279 23.45V9.15001C11.6279 8.98867 11.6793 8.85667 11.7819 8.75401C11.8846 8.65134 12.0166 8.6 12.1779 8.6H14.6639C14.8253 8.6 14.9573 8.65134 15.0599 8.75401C15.1626 8.85667 15.2139 8.98867 15.2139 9.15001V23.45C15.2139 23.6113 15.1626 23.7433 15.0599 23.846C14.9573 23.9487 14.8253 24 14.6639 24H12.1779Z" fill="white"/>
<path d="M19.01 24C18.8486 24 18.7166 23.9487 18.614 23.846C18.5113 23.7433 18.46 23.6113 18.46 23.45V9.15001C18.46 8.98867 18.5113 8.85667 18.614 8.75401C18.7166 8.65134 18.8486 8.6 19.01 8.6H24.84C26.6733 8.6 28.118 9.02534 29.174 9.87601C30.23 10.712 30.758 11.922 30.758 13.506C30.758 14.5767 30.5013 15.4713 29.988 16.19C29.4746 16.9087 28.7853 17.444 27.92 17.796L31.022 23.296C31.066 23.384 31.088 23.4647 31.088 23.538C31.088 23.6553 31.044 23.7653 30.956 23.868C30.868 23.956 30.758 24 30.626 24H28.184C27.92 24 27.722 23.934 27.59 23.802C27.458 23.6553 27.3626 23.5233 27.304 23.406L24.62 18.368H21.958V23.45C21.958 23.6113 21.9066 23.7433 21.804 23.846C21.7013 23.9487 21.5693 24 21.408 24H19.01ZM21.958 15.574H24.774C25.5806 15.574 26.1746 15.3907 26.556 15.024C26.952 14.6573 27.15 14.144 27.15 13.484C27.15 12.824 26.9593 12.3033 26.578 11.922C26.1966 11.5407 25.5953 11.35 24.774 11.35H21.958V15.574Z" fill="white"/>
<path d="M39.0001 24.22C37.5921 24.22 36.4114 24.0147 35.4581 23.604C34.5194 23.1933 33.8081 22.658 33.3241 21.998C32.8401 21.338 32.5834 20.634 32.5541 19.886C32.5541 19.7687 32.5981 19.666 32.6861 19.578C32.7741 19.4753 32.8841 19.424 33.0161 19.424H35.3701C35.5607 19.424 35.7074 19.468 35.8101 19.556C35.9127 19.6293 36.0081 19.7247 36.0961 19.842C36.1987 20.0913 36.3601 20.3333 36.5801 20.568C36.8147 20.8027 37.1301 21.0007 37.5261 21.162C37.9221 21.3087 38.4134 21.382 39.0001 21.382C39.9534 21.382 40.6647 21.228 41.1341 20.92C41.6181 20.612 41.8601 20.194 41.8601 19.666C41.8601 19.2847 41.7281 18.9767 41.4641 18.742C41.2147 18.5073 40.8114 18.2947 40.2541 18.104C39.7114 17.9133 38.9854 17.708 38.0761 17.488C36.9761 17.2533 36.0374 16.9527 35.2601 16.586C34.4974 16.2047 33.9181 15.7207 33.5221 15.134C33.1407 14.5327 32.9501 13.792 32.9501 12.912C32.9501 12.032 33.1921 11.2547 33.6761 10.58C34.1601 9.89067 34.8421 9.35534 35.7221 8.97401C36.6021 8.578 37.6507 8.38 38.8681 8.38C39.8507 8.38 40.7161 8.512 41.4641 8.77601C42.2267 9.04001 42.8574 9.38467 43.3561 9.81C43.8694 10.2353 44.2581 10.69 44.5221 11.174C44.7861 11.658 44.9254 12.1273 44.9401 12.582C44.9401 12.6993 44.8961 12.8093 44.8081 12.912C44.7201 13 44.6101 13.044 44.4781 13.044H42.0141C41.8674 13.044 41.7354 13.0147 41.6181 12.956C41.5007 12.8973 41.4054 12.7947 41.3321 12.648C41.2441 12.2667 40.9801 11.9367 40.5401 11.658C40.1147 11.3647 39.5574 11.218 38.8681 11.218C38.1494 11.218 37.5774 11.35 37.1521 11.614C36.7414 11.878 36.5361 12.2813 36.5361 12.824C36.5361 13.176 36.6387 13.4767 36.8441 13.726C37.0641 13.9607 37.4234 14.1733 37.9221 14.364C38.4354 14.54 39.1101 14.738 39.9461 14.958C41.2367 15.222 42.2854 15.5373 43.0921 15.904C43.8987 16.2707 44.4927 16.7473 44.8741 17.334C45.2554 17.906 45.4461 18.632 45.4461 19.512C45.4461 20.4947 45.1674 21.338 44.6101 22.042C44.0674 22.746 43.3121 23.2887 42.3441 23.67C41.3907 24.0367 40.2761 24.22 39.0001 24.22Z" fill="white"/>
</svg>
